<svg xmlns="http://www.w3.org/2000/svg" id="Laag_1" viewBox="0 0 1677.3 130.3"><defs><style>      .st0 {        fill: #e1153d;      }      .st1 {        fill: #fff;      }      .st2 {        fill: #221e1f;      }    </style></defs><path class="st2" d="M1677.3,109.6c-2.7,11.7-9.8,19.4-21.7,21.1-6.3.9-13,0-19.4-.8-5.7-.7-11.2-3.9-17-.4-.8.5-2.2,0-3.6,0v-25.7c2.5-.6,4.2-.5,5.7,2.3,4.1,7.6,19.2,18.3,31.1,16,3.9-.7,7.3-2,8.3-6.4,1-4.4-.2-7.7-4.9-9.9-7.4-3.6-15.1-6.4-22.6-9.7-3.5-1.6-7.1-3.4-10.2-5.6-8.7-6.3-11.9-15.6-9-25.7,2.9-10.1,10.2-15.5,20.2-16.8,5.2-.6,10.7.4,16.1,1.1,5.2.7,10.1,3.1,15.4.2.9-.5,2.4,0,3.8,0,.1.9.3,1.6.3,2.3,0,6.9,0,13.8,0,21h-4.4c-6.4-9.9-14.3-17.1-26.8-17.2-1.9,0-3.9.5-5.6,1.3-5.7,2.5-7.1,8.7-2.4,12.8,3.3,2.9,7.4,4.8,11.4,6.7,4.8,2.3,9.7,4.2,14.7,6,10.2,3.7,18.2,9.6,20.8,20.8v6.7h0s0,0,0,0Z"></path><path class="st2" d="M155.5,124.2v5.2h-51.6v-5.5c7.7-1,12.9-6.9,12.9-14.7V33.6c-.3,0-.6-.2-.9-.3-14.7,33.3-29.3,66.7-44.4,100.9-15.5-34-30.7-67.3-45.9-100.6-.2,0-.5,0-.7,0,0,1.4-.2,2.8-.2,4.2,0,23.9,0,47.7,0,71.6,0,7.7,5.3,13.5,13.3,14.4v5.6H2.6v-5.2c7.9-2.4,11.8-7.6,11.8-16,0-27.2,0-54.4,0-81.6,0-6.3-5.3-12.3-11.8-13.2v-6c1.1,0,2.3-.2,3.6-.2,10.9,0,21.8.1,32.6,0,3,0,4.3,1,5.5,3.7,11,25.1,22.1,50.2,33.2,75.3.6,1.4,1.3,2.7,2.2,4.8,3.2-7.2,6-13.7,8.9-20.2,8.7-19.9,17.4-39.9,26-59.8,1.1-2.6,2.4-3.7,5.5-3.7,11.8.2,23.7,0,35.7,0v5.7c-8.9,3.3-11.9,7.7-11.9,17.3,0,26.1.3,52.2-.2,78.2-.1,6.6,5.2,14.1,11.7,15.7h0s0,0,0,0Z"></path><path class="st0" d="M1032.1,8.3c0,1.5.2,2.9.2,4.2,0,21.1,0,42.2,0,63.2,0,30.1-21.1,52.7-51.3,55.1-27.7,2.2-55-20.2-56.3-47.9-1.2-24.3-.5-48.8-.7-73.2,0-.4.2-.8.4-1.6h107.7,0s0,0,0,0ZM1007.1,97.4c3.8.3,3.7-1.8,2.8-4.2-2.5-7.1-5.2-14.1-7.4-21.2-.5-1.8-.2-4.4.8-6,3.7-5.9,7.9-11.4,11.8-17.2.9-1.3,1.1-3,1.6-4.5-1.5-.5-3-1.3-4.5-1.3-6.7,0-13.4.2-20.1.7-3.1.2-4.8-.9-6.5-3.3-4-5.9-8.2-11.6-12.4-17.3-.8-1-2.1-1.7-3.1-2.5-.8,1.2-2.1,2.2-2.4,3.5-2.1,7-3.9,14.2-6.1,21.1-.5,1.6-2.3,3.4-3.9,4.1-6.6,2.5-13.5,4.5-20.2,6.9-1.3.5-3.1,1.6-3.2,2.6,0,1.1,1.3,2.6,2.4,3.4,5.7,4.2,11.7,8.1,17.3,12.4,1.5,1.1,2.7,3.5,2.8,5.3.4,7.3.2,14.7.5,22.1,0,1.3.6,3.4,1.3,3.5,1.2.2,2.9-.4,4-1.2,5.6-4.2,11.1-8.4,16.4-12.9,2.2-1.9,4.1-2.1,6.7-1.1,7.1,2.6,14.2,4.8,21.2,7.2h0Z"></path><path class="st2" d="M1568,56.6c0-9.8.1-18.8,0-27.7,0-2.6-.7-5.5-2-7.8-2.2-4-5.5-6.7-10.6-5.5-1.6-3.6-1-5.4,3-6.3,10.8-2.5,21.5-5.4,32.6-8.3v4.9c0,34.8.2,69.6-.2,104.4,0,6.7,4.6,13.3,11.7,13.8v5.8c-8.9,0-17.6,0-26.3-.1-.8,0-1.8-1.4-2.2-2.4-.8-2.2-1.2-4.5-1.9-7.2-2.9,2.2-5.4,4.3-8.1,6-12.4,8-29.1,6.6-41-2.2-18-13.2-21.5-43.1-9.3-60.9,10.8-15.7,36.6-21.2,52.1-8.1.4.4.9.6,2.3,1.7h0ZM1528.5,90.7c1,5.3,1.6,13,4.1,20,3,8.1,11.2,11.8,19.4,10.5,8.9-1.4,14.9-7.3,15.7-16.4.7-8.3.7-16.6.5-24.9-.2-7.4-3.5-13.6-9.3-18.3-10.7-8.7-24.9-4.3-28,9.1-1.3,5.7-1.4,11.8-2.3,20h0Z"></path><path class="st2" d="M761.8,124.2v5.4h-43v-5.2c7.2-1.6,11.2-6.5,11.2-13.8V27.3c0-7.4-3.4-11.2-10.9-12.3-1.3-3.3-.4-5.1,3.4-6,9.7-2.4,19.3-5.2,29.4-8v63.2c4.9-3.9,9.2-7.6,13.8-10.9,9.5-6.8,19.9-7.7,27.7-2.4,7,4.8,11.3,11.5,11.3,20.2.1,13.3,0,26.6,0,40,0,6.5,4.1,11.5,10.6,13.1v5.4h-43v-5.2c6.8-1.3,10.5-5.7,10.5-12.7,0-11.9,0-23.9,0-35.8,0-1.9,0-4-.8-5.7-2.8-7.3-6.8-10.1-13.7-6.5-4.6,2.4-8.8,5.8-12.9,9.1-2.8,2.3-3.8,5.4-3.7,9.2.3,10.3,0,20.5.1,30.8,0,6.1,4,10.7,9.9,11.5h0Z"></path><path class="st2" d="M1144.2,6c8.3,20,16.5,39.8,24.8,59.6,6,14.5,12,28.9,18,43.4,3.1,7.4,8.9,12.1,16.4,15.4v5.1h-55.9v-5.6c5.9-.3,8.5-4.7,10.9-9,.7-1.2.4-3.2-.1-4.7-1.6-4.4-3.4-8.8-5.4-13-.6-1.2-2.5-2.6-3.8-2.7-11.2-.2-22.3,0-33.5-.2-2.5,0-3.5,1-4.1,3-1.1,3.4-2.5,6.8-3.7,10.1-2.8,7.5,1.4,14.9,9.6,16.4v5.4h-37.6v-5.2c8.2-3.6,14.5-8.8,17.8-17.8,10.8-29.1,22.3-57.9,32.9-87.1,2.5-7,6.5-11.2,13.8-13.4h0ZM1131.5,41.5c-5.6,15.4-10.7,29.6-16,44h32.8c-5.6-14.6-11-28.8-16.8-44h0Z"></path><path class="st2" d="M1239.9,49.7v5.2c-7.1,1.2-10.3,6.7-7.9,13.3,3.2,8.8,6.5,17.7,9.7,26.5.5,1.2,1,2.4,1.9,4.6,1.9-5.2,3.4-9.4,5-13.6,1.5-4,3.4-8,4.2-12.2,2.1-11.1,10.7-16.9,18.7-24,6.7,16.6,13.2,32.9,20.1,49.9.9-2,1.6-3.2,2.1-4.5,3.5-9.1,6.9-18.1,10.3-27.2,2.2-5.9-1.6-11.8-8.1-12.5v-5.5h30.1v5c-6.8,1.6-10.4,6.6-12.8,12.5-7,17.3-14,34.7-20.6,52.2-2,5.4-5.1,9-10.9,11-6.7-17.9-13.5-36-20.7-55.1-1,2.3-1.6,3.6-2.1,4.9-4.6,12.8-9.1,25.6-13.7,38.3-1.9,5.3-5.7,9.2-11.3,12-.6-1.3-1.2-2.6-1.8-4-7.8-19.7-15.6-39.4-23.5-59.1-2.3-5.6-5.7-10.4-12.1-12.7v-5h43.6Z"></path><path class="st2" d="M1416.6,111.4c1.3,1.5,2.6,3,4.4,5-4.4,3.8-8.6,8.2-13.4,11.5-8.9,6.1-18.7,2.9-23-7-.6-1.2-1.1-2.5-1.8-4.2-3.5,3-6.7,6-10.2,8.7-7.8,6.1-16.4,7.6-25.5,3.6-8.4-3.6-13-10.1-13.3-19.4-.3-9,4.1-15.5,12-18.7,7.8-3.1,16.2-4.8,24.4-6.9,3.4-.9,6.8-1.4,10.9-2.2-.2-4.5.1-9.1-.7-13.5-2-9.7-16.1-14.7-24.2-8.9-3.3,2.4-4.5,5.8-4.5,9.8-.1,7.4-6.3,12.4-13.7,11.1-3.1-.6-5.4-3.7-5.1-6.9,1-8.6,5.3-15.1,12.7-19.5,13.4-8,27.5-8.4,41.7-2.7,10.4,4.2,15.3,12.4,15.3,23.5,0,11.2.1,22.5,0,33.7,0,3.6,1.1,6.2,4.2,7.9,3.3,1.8,5-1.1,7.2-2.6.9-.6,1.7-1.4,2.8-2.2h0s0,0,0,0ZM1381.4,87.3c-9,3.2-17,5.6-24.7,9-4.5,2-5.8,6.9-4.7,11.8,1.4,5.6,7.2,9.5,13.7,9.1,5.9-.3,15.3-8.2,15.5-13.3.2-4.9,0-9.9,0-16.6Z"></path><path class="st2" d="M216.8,81.8c0-4.3.3-8.2,0-12-.5-5.4-3.4-9.4-8.6-11.2-5.7-2-11.5-2.7-16.7,1.4-3,2.3-3.7,5.7-3.8,9.3-.2,7.4-6.5,12.6-13.8,10.9-2.8-.6-5.3-2.3-5-6.1.6-7.2,3.5-13.1,9-17.6,12.7-10.4,34.2-12,48.4-3.8,8.1,4.7,12.1,11.6,12.1,20.8,0,11.4,0,22.7,0,34.1,0,1.1-.1,2.2,0,3.3.9,5,5.9,7.1,9.9,4,1.3-1,2.5-2.2,4-3.4.8.7,1.7,1.3,2.5,2.1.7.7,1.3,1.4,2.5,2.7-4.7,4-8.8,8.3-13.7,11.6-9,6.1-18.6,2.8-22.9-7.1-.6-1.3-1.1-2.5-1.9-4.1-3.6,3.1-6.9,6.2-10.5,8.9-8.6,6.6-19.5,7.4-28.2,1.9-7.1-4.5-10.7-11-10.3-19.6.4-8.1,4.5-14,11.6-16.8,7.9-3.2,16.4-4.9,24.7-7.1,3.3-.9,6.8-1.4,10.6-2.1h0ZM217.5,87.2c-9,3.3-17.4,5.7-25.2,9.4-5.1,2.4-6,10.3-2.7,15,3,4.4,9.3,6.7,14.4,5.3,5.4-1.5,13.3-8.9,13.5-13,.2-5,0-9.9,0-16.6h0Z"></path><path class="st2" d="M350.2,111.2c1.5,1.5,2.8,2.8,4.9,4.8-5,4.3-9.3,8.7-14.3,12-8.8,5.8-18.4,2.5-22.6-7.3-.5-1.2-1.1-2.5-2-4.4-1.6,1.6-2.8,2.8-4,4-7.6,7.2-15.9,12.7-27.3,10.1-9.6-2.2-16.3-9.3-17.5-18.9-1.2-8.9,3-17.2,12.5-20.9,9-3.4,18.7-5.2,28.1-7.6,2-.5,4.1-.8,6.7-1.4-.3-4.8,0-9.5-.9-14.1-1.9-9.5-18-14.4-24.9-7.5-2.1,2.1-3.3,5.8-3.5,8.8-.6,7.5-7,12.9-14.3,11.1-2.9-.7-5.2-2.6-4.9-6.2.7-7.4,3.9-13.5,9.9-18.1,15-11.6,40.3-11.2,53.1.9,3.9,3.7,6.3,8.2,6.4,13.6.2,12.2.2,24.4.4,36.6,0,1.4,0,2.8.2,4.1,1.1,5.2,5.9,6.9,10,3.6,1.3-1,2.5-2.1,4.1-3.5h0s0,0,0,0ZM314.8,87.3c-9,3.3-17.3,5.6-24.9,9.3-5.4,2.6-6.2,10.4-2.6,15.3,3,4.1,9.3,6.3,14.2,5,5.3-1.4,13.2-8.7,13.3-12.7.2-5.1,0-10.2,0-16.9h0Z"></path><path class="st2" d="M365.4,104c3.2-.8,4.5,0,6.2,2.4,7.5,10.2,17.2,16.9,30.7,15.8,4.2-.3,7.6-2.1,8.6-6.6,1-4-.6-7.6-5.2-9.8-7.3-3.5-14.9-6.2-22.2-9.5-3.8-1.7-7.6-3.6-10.9-6.1-8.5-6.3-11.2-15-8.5-25.1,2.7-10.2,10-15.6,20-16.9,5.4-.7,11,.4,16.5,1.2,5,.7,9.9,3.1,15,.2,1-.6,2.6,0,4.2,0v23.1c-2.9.8-4.4.3-6.2-2.4-5.9-8.8-13.8-14.8-25.1-14.8-5.5,0-9.3,2.6-10.2,6.3-1.1,4.3.9,8.4,6.3,10.9,7.5,3.6,15.3,6.6,23,9.9,2.3,1,4.6,1.9,6.8,3.1,10,5.6,14.2,14.2,12.5,25.4-1.3,8.7-9.3,16.8-18.7,19.2-7.6,1.9-15.1,1.4-22.7-.5-5.2-1.3-10.3-3.7-15.7-.3-1,.6-2.7,0-4.4,0v-21.9c0-1.2.1-2.4.2-3.7h0s0,0,0,0Z"></path><path class="st2" d="M821,49.3c8.2,1.7,12.8-3.7,17-9.1,4.3-5.5,8.1-11.5,12.5-17.8h3.4v26.7h20.2v9.7h-19.1c-.1,1.7-.3,3-.3,4.3,0,14.7,0,29.4,0,44.1,0,3.3.8,5.9,3.3,8.1,2.7,2.3,5.5,2.8,8.4.9,2.9-1.9,5.7-4,8.7-6.2,1.3,1.4,2.8,3,4.5,4.8-5.9,6.7-12.2,12.5-20.6,15.4-12.6,4.4-26.5-5.5-26.6-18.9,0-13.6,0-27.2,0-40.8s-1-11.5-11.4-12.1v-9.3Z"></path><path class="st2" d="M434.9,58.3v-8.4c15.7-1.2,20.5-14.2,27.4-24.7,1.8-2.8,1.5-3.1,5.6-2.7v26.8h14.8c4.1,0,6.1,2,6.1,6v3.5h-19.8c0,1.9-.2,3.3-.2,4.6,0,14.7.1,29.4,0,44.1,0,4.3,1.9,7.2,5.3,9.2,3.1,1.8,5.9.2,8.5-1.6,2.2-1.5,4.2-3.2,6.7-5.1,1.4,1.5,2.9,3.1,4.6,4.9-5.8,6.6-12.2,12.2-20.4,15.4-11,4.3-27.2-4.8-26.8-19.1.3-13.2,0-26.4,0-39.5s-.3-11.8-11.7-13.3h0Z"></path><path class="st2" d="M707.1,58.8c-4.3,7.2-8,13.5-11.8,19.8-1.4,2.3-5.2,2.1-6.7-.8-1.1-2.1-1.4-4.7-1.8-7.1-.4-2.6,0-5.3-.8-7.8-2.5-8-12.3-10.3-20.1-4.6-6.9,5-9.7,12.3-10.8,20.4-1.4,11.1,0,21.7,8,30.3,11.1,11.9,31.9,10.4,42.4-3,2-2.6,4.9-3.5,8.7-2.9-2.3,8.2-7.1,14.6-13.7,19.7-17.3,13.3-46.3,12.5-59.5-9.7-8.8-14.7-7-36.8,4.2-50.8,10.5-13,29.4-18.5,45.8-12.5,5.6,2,10.6,5.8,16.1,8.9h0Z"></path><path class="st2" d="M546.7,63.1c-6.5,7.6-14,13.4-12.8,24.5.8,7.5.2,15.2.2,22.9,0,8.4,4.9,13.3,13.3,13.3h4v5.6h-51v-5.2c7-1.3,11.5-6.5,11.5-13.6,0-11.2-.5-22.5.2-33.7.5-8.5-4.9-12.9-11.8-13.6-1.1-3.3-.3-5.3,3.3-6.5,3.4-1.1,6.7-2.7,10-4.1,3.2-1.4,6.2-3,9.8-4.7,2.5,6.9,5,13.8,7.7,21.5,2.7-3.4,4.9-6.3,7.2-9.1,4.8-5.8,9.8-11.4,17.9-12.7,7-1.1,12.9,2.1,14.8,8.4,1.9,6.4-1.1,12.7-7.3,15.4-6.1,2.6-12.2.2-15.8-6.2-.3-.5-.5-.9-1.2-2.2h0Z"></path><path class="st2" d="M1427.3,63.5c-1.1-3.7.2-5.4,3.6-6.7,6.5-2.4,12.8-5.4,19.6-8.4,2.4,6.7,4.9,13.6,7.6,21,4.2-5,7.9-9.7,11.9-14.1,3.5-3.9,7.8-6.6,13.1-7.5,7.1-1.1,13.1,2.1,14.9,8.2,1.9,6.4-1.1,12.8-7.2,15.4-6,2.6-12.3.3-15.9-6-.3-.5-.5-1-1.1-2.3-5.3,6.6-12.8,11.2-12.7,20.7,0,8.9,0,17.8,0,26.6,0,8.5,4.9,13.4,13.2,13.4h4.3v5.6h-51.1v-5.1c7.4-1.7,11.4-6.7,11.4-14.4v-33.7c0-8-3.5-12-11.6-12.8h0s0,0,0,0Z"></path><path class="st2" d="M615.2,47.4v63.2c0,7.8,3.9,12.3,11.7,13.5v5.5h-45v-5.2c8.8-2.9,11.3-6.3,11.3-15.6,0-10.7-.4-21.4.1-32,.4-7.7-3.5-12.3-11.1-14-1.1-3.4,0-4.7,3.6-5.7,8.3-2.3,16.4-5.3,24.5-8,1.4-.5,2.8-.9,4.7-1.6h0Z"></path><path class="st2" d="M615.3,20.8c0,7.3-6.2,13.1-13.8,13.1-7.3,0-13.4-6-13.3-13.1,0-7.2,6.3-13.5,13.6-13.4,7.4,0,13.6,6.2,13.5,13.5Z"></path><path class="st1" d="M1007.1,97.4c-7-2.3-14.2-4.6-21.2-7.2-2.6-.9-4.5-.8-6.7,1.1-5.3,4.5-10.8,8.7-16.4,12.9-1.1.8-2.8,1.4-4,1.2-.7-.1-1.2-2.3-1.3-3.6-.2-7.3,0-14.7-.5-22.1-.1-1.9-1.3-4.2-2.8-5.3-5.6-4.3-11.6-8.2-17.3-12.4-1.1-.8-2.5-2.3-2.4-3.4,0-.9,1.9-2.1,3.2-2.6,6.7-2.4,13.5-4.4,20.2-6.9,1.6-.6,3.3-2.4,3.9-4.1,2.3-7,4-14.1,6.1-21.1.4-1.3,1.6-2.3,2.4-3.5,1,.8,2.3,1.5,3.1,2.5,4.2,5.7,8.4,11.4,12.4,17.3,1.7,2.5,3.4,3.5,6.5,3.3,6.7-.4,13.4-.6,20.1-.7,1.5,0,3,.9,4.5,1.3-.5,1.5-.7,3.2-1.6,4.5-3.9,5.8-8.1,11.3-11.8,17.2-1,1.6-1.4,4.2-.8,6,2.2,7.1,4.9,14.1,7.4,21.2.8,2.4,1,4.5-2.8,4.2h0Z"></path></svg>