<svg width="692" height="143" viewBox="0 0 692 143" fill="none" xmlns="http://www.w3.org/2000/svg">
<g clip-path="url(#clip0_644_752)">
<path d="M56.1036 55.0187C55.4967 53.0769 54.6379 51.3014 53.5493 49.7772C52.4614 48.2108 51.0794 46.9165 49.4254 45.8306C47.7507 44.7448 45.9085 43.9302 43.8573 43.3876C45.9714 42.5523 47.7929 41.3408 49.3001 39.7538C50.8074 38.1668 51.9375 36.2663 52.6911 34.0532C53.4448 31.8186 53.8012 29.3128 53.8012 26.5149C53.8012 19.6656 51.3306 14.3406 46.3901 10.519C41.4289 6.7395 34.5625 4.81836 25.7072 4.81836C16.2657 4.81836 7.70378 6.59316 0 10.1221V81.5599C7.18059 83.8773 15.1356 85.0467 23.9279 85.0467C34.4158 85.0467 42.559 82.9585 48.3161 78.7821C54.0939 74.6271 57.0039 68.8008 57.0039 61.3247C57.0039 59.0695 56.669 56.9606 56.1036 54.998V55.0187ZM19.6152 22.255C21.6456 21.4819 23.9902 21.1063 26.6283 21.1063C28.6172 21.1063 30.2919 21.3776 31.6732 21.9416C33.076 22.5263 34.1224 23.3409 34.8345 24.4267C35.5459 25.5126 35.9023 26.8698 35.9023 28.4568C35.9023 33.8026 32.4269 36.4755 25.4975 36.4755H19.5944V22.255H19.6152ZM34.2275 65.9816C32.3431 67.4644 29.622 68.2369 26.0836 68.2369C23.8228 68.2369 21.667 68.0491 19.6359 67.6522V50.9466H25.6442C27.9681 50.9466 29.9985 51.3014 31.757 52.0117C33.5154 52.7214 34.8137 53.7451 35.714 55.0601C36.6137 56.3759 37.0954 57.9215 37.0954 59.6335C37.0954 62.3485 36.1327 64.4574 34.2483 65.9816H34.2275Z" fill="white"/>
<path d="M97.6573 68.6755C89.9743 68.6755 85.285 65.7734 83.6103 59.9886C94.559 61.8683 105.549 61.6805 116.582 59.4039C117.964 55.0604 118.571 50.3414 118.403 45.309C118.257 38.5218 115.996 33.3017 111.662 29.6057C107.308 25.9091 101.258 24.0508 93.4704 24.0508C84.1127 24.0508 76.8276 26.7444 71.6574 32.1323C66.4865 37.5195 63.8906 45.1206 63.8906 54.9147C63.8906 61.3878 65.0629 66.88 67.3446 71.3698C69.6477 75.8382 73.0387 79.2421 77.4975 81.6016C81.957 83.9197 87.3784 85.0891 93.8054 85.0891C102.64 85.0891 110.406 83.0009 117.147 78.7616C117.356 73.1238 115.744 68.5919 112.27 65.1887C108.167 67.5275 103.31 68.6969 97.6365 68.6969L97.6573 68.6755ZM92.7798 39.5456C97.6995 39.5456 100.149 41.3204 100.149 44.8493C100.149 45.8309 100.128 46.729 100.023 47.5643C95.3334 48.3995 89.7445 48.3995 83.2753 47.5643C84.3224 42.2185 87.4836 39.5456 92.7798 39.5456Z" fill="white"/>
<path d="M161.32 4.50525V27.559C157.614 25.2409 153.407 24.0508 148.655 24.0508C141.077 24.0508 135.257 26.7444 131.133 32.1323C127.009 37.5195 124.957 45.1206 124.957 54.9148C124.957 75.045 134.545 85.0684 153.721 85.0684C164.062 85.0684 173.106 83.168 180.809 79.3049V4.50525C174.32 2.68835 167.809 2.68835 161.32 4.50525ZM161.445 65.8776C159.499 66.7757 157.07 67.2348 154.202 67.2348C150.874 67.2348 148.446 66.2746 146.959 64.3534C145.452 62.4323 144.677 59.2789 144.677 54.9148C144.677 50.3207 145.389 47.0003 146.833 44.9328C148.257 42.8446 150.56 41.8216 153.721 41.8216C156.881 41.8216 159.373 42.9074 161.425 45.0999V65.8984L161.445 65.8776Z" fill="white"/>
<path d="M229.963 26.2025C226.635 24.699 222.531 23.9473 217.612 23.9473C209.155 23.9473 200.467 26.6202 191.57 31.966V83.2729C198.039 84.9855 204.55 84.9855 211.039 83.2729V45.1841C213.53 43.4507 216.21 42.574 219.077 42.574C221.192 42.574 223.201 43.138 225.086 44.2653C228.623 38.9195 230.257 32.8848 229.963 26.1818V26.2025Z" fill="white"/>
<path d="M236.766 24.8234V83.2723C243.256 85.0685 249.745 85.0685 256.235 83.2723V24.8234C249.745 26.5567 243.256 26.5567 236.766 24.8234ZM256.026 1.4569C249.662 -0.485632 243.361 -0.485632 237.08 1.4569C235.426 6.86484 235.426 12.2527 237.08 17.5985C243.34 19.4154 249.662 19.4154 256.026 17.5985C257.68 12.2527 257.68 6.86484 256.026 1.4569Z" fill="white"/>
<path d="M288.642 1.4569C282.383 -0.485632 276.061 -0.485632 269.718 1.4569C268.064 6.86484 268.064 12.2527 269.718 17.5985C276.061 19.4154 282.362 19.4154 288.642 17.5985C290.296 12.2527 290.296 6.86484 288.642 1.4569ZM279.221 25.972C275.83 25.972 272.585 25.5965 269.487 24.8234V76.0053C269.487 80.161 268.838 83.46 267.498 85.9452C266.18 88.4303 263.856 90.7691 260.527 92.9615C259.92 97.9318 261.176 102.066 264.254 105.386C280.729 103.946 288.977 93.8596 288.977 75.0865V24.8027C285.879 25.5751 282.613 25.9513 279.221 25.9513V25.972Z" fill="white"/>
<path d="M321.569 21.1471C322.135 19.9777 322.993 19.1217 324.165 18.5577C325.358 17.973 326.845 17.7017 328.666 17.7017C331.304 17.7017 333.628 18.1614 335.679 19.0589C338.61 15.53 339.95 11.3536 339.636 6.52966C334.947 4.19088 329.671 3.02148 323.767 3.02148C315.918 3.02148 310.202 5.15178 306.623 9.41171C303.043 13.6716 301.242 20.5417 301.242 30.0224V83.2505C307.711 84.9625 314.221 84.9625 320.711 83.2505V41.7785H331.471C333.67 37.1845 334.612 32.0685 334.318 26.4093H320.711V25.7204C320.711 23.8414 320.983 22.3378 321.569 21.1471Z" fill="white"/>
<path d="M381.315 57.7333C380.1 55.3945 378.572 53.5989 376.73 52.3667C374.867 51.1138 372.878 49.9865 370.764 49.0256C368.671 48.044 366.682 47.3136 364.819 46.8125C362.976 46.332 361.448 45.7266 360.234 44.9535C359.019 44.2017 358.412 43.3664 358.412 42.469C358.412 40.6521 360.109 39.754 363.52 39.754C366.933 39.754 369.906 40.9027 372.02 43.1372C374.448 42.2391 376.437 40.8399 378.07 38.898C379.703 36.9769 380.77 34.763 381.315 32.2786C379.116 29.6471 376.269 27.601 372.69 26.1182C369.152 24.6561 365.258 23.9258 361.008 23.9258C354.519 23.9258 349.244 25.575 345.224 28.8954C341.163 32.1951 339.174 36.5592 339.174 42.0093C339.174 44.9327 339.761 47.5428 340.912 49.7981C342.084 52.0533 343.57 53.8288 345.329 55.0396C347.108 56.2926 349.034 57.4205 351.149 58.4229C353.263 59.4459 355.21 60.2391 356.989 60.7824C358.769 61.3671 360.255 62.0146 361.469 62.7663C362.683 63.5388 363.291 64.332 363.291 65.1258C363.291 67.2347 360.632 68.2999 355.356 68.2999C350.437 68.2999 345.433 67.3183 340.284 65.3557C337.206 69.0723 335.741 73.5621 335.992 78.8244C347.318 75.5875 362.558 72.7061 380.896 72.7061H381.942C382.718 70.6594 383.115 68.4041 383.115 65.919C383.115 62.7449 382.508 59.9885 381.294 57.6711L381.315 57.7333ZM341.875 82.6246C347.046 84.2744 352.593 85.0683 358.538 85.0683C366.095 85.0683 372.083 83.3764 376.5 79.9938C377.337 79.3463 378.111 78.6366 378.803 77.9056C364.274 78.0727 351.776 80.1401 341.875 82.6246Z" fill="white"/>
<path d="M440.038 29.3125C436.458 25.7415 431.56 23.946 425.363 23.946C420.066 23.946 415.189 25.1782 410.646 27.6627V4.5047C404.156 2.79271 397.667 2.79271 391.177 4.5047V73.0812C397.646 73.4574 404.135 74.1878 410.646 75.295V44.6189C413.514 42.677 416.465 41.6954 419.501 41.6954C421.762 41.6954 423.395 42.2387 424.421 43.2824C425.447 44.3476 425.949 46.0181 425.949 48.3776V78.5526C429.173 79.3665 432.376 80.2646 435.579 81.267C438.238 82.1443 440.896 82.9796 443.492 83.7728C444.12 83.6265 444.769 83.4808 445.418 83.2924V44.6189C445.418 37.9994 443.618 32.9042 440.038 29.3332V29.3125ZM391.156 78.1971V83.2716C397.646 85.0678 404.135 85.0678 410.625 83.2716V80.4738C403.843 79.283 397.353 78.5526 391.156 78.1971Z" fill="white"/>
<path d="M504.724 41.2783C503.929 38.0628 502.798 35.3692 501.333 33.1974C499.867 31.0043 498.004 29.2502 495.785 27.8931C493.545 26.5152 491.075 25.5543 488.353 24.9489C485.632 24.3435 482.533 24.0508 479.059 24.0508C471.208 24.0508 464.154 25.8677 457.873 29.4801C457.706 34.9722 459.338 39.5456 462.751 43.1373C467.21 41.1947 472.004 40.2138 477.154 40.2138C484.543 40.2138 488.165 42.6361 488.019 47.4386V49.0257C485.151 47.6057 481.131 46.896 475.897 46.896C471.083 46.896 466.958 47.6057 463.547 49.0257C460.155 50.4664 457.559 52.5546 455.78 55.2903C454.001 58.026 453.121 61.325 453.121 65.1673C453.121 71.5154 455.34 76.4229 459.799 79.8682C464.258 83.335 470.518 85.047 478.598 85.047C489.254 85.047 498.36 83.1472 505.897 79.2835V52.2833C505.897 48.149 505.499 44.4737 504.703 41.2783H504.724ZM487.432 69.3437C485.548 70.1168 483.098 70.4924 480.063 70.4924C474.473 70.4924 471.668 68.759 471.668 65.2929C471.668 61.8262 474.411 59.8843 479.938 59.8843C482.973 59.8843 485.464 60.4276 487.411 61.4713V69.3651L487.432 69.3437Z" fill="white"/>
<path d="M561.707 24.6148C558.253 24.6148 554.924 25.0324 551.659 25.847C549.104 38.7517 545.734 51.156 541.589 63.1419H541.359C537.046 51.5522 533.509 39.1066 530.704 25.847C523.963 24.1343 517.222 24.1343 510.418 25.847C514.584 45.8937 521.493 65.0216 531.143 83.2722C537.779 84.922 544.436 84.922 551.093 83.2722C560.681 65.1052 567.526 45.9773 571.588 25.847C568.427 25.0324 565.119 24.6148 561.686 24.6148H561.707Z" fill="white"/>
<path d="M607.74 68.6755C604.056 68.6755 601.083 68.0286 598.801 66.6708C597.377 65.8776 596.205 64.8125 595.326 63.4967C594.635 62.4737 594.091 61.3043 593.714 59.9886C595.137 60.2391 596.561 60.4483 597.984 60.5946C598.822 60.7403 599.68 60.8031 600.517 60.8659C609.205 61.7012 617.914 61.2208 626.685 59.4039C628.046 55.0604 628.632 50.3414 628.486 45.309C628.339 38.5218 626.078 33.3017 621.745 29.6057C617.411 25.9091 611.341 24.0508 603.574 24.0508C594.216 24.0508 586.91 26.7444 581.739 32.1323C576.568 37.5195 573.973 45.1206 573.973 54.9147C573.973 61.3878 575.145 66.88 577.448 71.3698C578.537 73.4994 579.897 75.4205 581.53 77.0704C582.117 77.6965 582.765 78.3026 583.436 78.8452C586.994 76.2558 588.753 74.4603 588.795 74.3768L596.226 66.3788L593.149 76.8198C593.023 77.2167 592.312 79.5134 590.448 82.8752C591.244 83.1679 592.06 83.4599 592.919 83.6898C596.184 84.6293 599.827 85.0891 603.888 85.0891C612.722 85.0891 620.489 83.0009 627.229 78.7616C627.46 73.1238 625.827 68.5919 622.352 65.1887C618.27 67.5275 613.413 68.6969 607.719 68.6969L607.74 68.6755ZM602.862 39.5456C607.782 39.5456 610.231 41.3204 610.231 44.8493C610.231 45.8309 610.21 46.729 610.147 47.5643C605.458 48.3995 599.869 48.3995 593.379 47.5643C594.426 42.2185 597.586 39.5456 602.883 39.5456H602.862ZM585.633 80.4115C586.261 80.8291 586.91 81.2261 587.58 81.5809C587.727 81.6437 587.873 81.7479 588.041 81.7894C589.883 78.5532 590.574 76.3814 590.658 76.0888C590.406 76.3393 588.773 78.0306 585.633 80.4115Z" fill="white"/>
<path d="M685.742 29.3138C681.848 25.7428 676.322 23.9473 669.162 23.9473C658.276 23.9473 647.705 26.6202 637.426 31.966V83.2729C643.916 84.9855 650.426 84.9855 656.916 83.2729V43.7227C659.553 42.3441 662.505 41.6759 665.75 41.6759C669.999 41.6759 672.093 43.9105 672.093 48.3374V83.2729C678.583 84.9855 685.093 84.9855 691.583 83.2729V44.5994C691.583 37.98 689.636 32.8848 685.742 29.3138Z" fill="white"/>
<path d="M590.656 76.0891C590.593 76.3604 589.881 78.5535 588.039 81.7897C581.801 92.8368 562.415 116.015 509.683 116.015C508.301 116.015 506.919 115.995 505.496 115.974C490.779 115.619 476.167 113.468 461.911 109.834C403.232 94.9871 382.759 88.8481 356.528 88.8481C345.286 88.8481 332.977 89.9547 316.125 92.0222C316.125 92.0222 325.483 86.7178 341.874 82.6043C351.776 80.1191 364.253 78.0523 378.802 77.8853C379.493 77.8639 380.204 77.8639 380.916 77.8639C384.224 77.8639 387.658 77.9474 391.174 78.198C397.37 78.5535 403.86 79.2839 410.643 80.4746C418.096 81.7483 425.883 83.5859 433.963 86.071C465.909 96.7205 492.349 100.542 513.786 100.542C553.561 100.542 576.295 87.4282 585.632 80.3911C588.772 78.0102 590.405 76.3189 590.656 76.0684V76.0891Z" fill="#2561E4"/>
<path d="M335.617 113.676C335.617 113.676 374.68 102.985 445.961 131.99C455.926 136.041 466.288 139.069 476.902 140.886C546.717 152.747 562.041 104.07 562.041 104.07C562.041 104.07 516.677 142.493 456.114 117.978C395.552 93.4624 362.895 100.207 335.638 113.676H335.617Z" fill="#2561E4"/>
</g>
<defs>
<clipPath id="clip0_644_752">
<rect width="692" height="143" fill="white"/>
</clipPath>
</defs>
</svg>
